<?xml version="1.0" encoding="utf-8"?>
<svg version="1.1" xmlns:xlink="http://www.w3.org/1999/xlink" width="135px" height="30px" xmlns="http://www.w3.org/2000/svg">
  <defs>
    <mask fill="white" id="clip19">
      <path d="M 0 30  L 0 0  L 31.8888888888889 0  L 135 0  L 135 30  L 95.7777777777778 30  L 92.9999999999999 30  L 80.4999999999999 30  L 0 30  Z " fill-rule="evenodd" />
    </mask>
  </defs>
  <g transform="matrix(1 0 0 1 -807 -376 )">
    <path d="M 0 30  L 0 0  L 31.8888888888889 0  L 135 0  L 135 30  L 95.7777777777778 30  L 92.9999999999999 30  L 80.4999999999999 30  L 0 30  Z " fill-rule="nonzero" fill="#ffffff" stroke="none" transform="matrix(1 0 0 1 807 376 )" />
    <path d="M 0 30  L 0 0  L 31.8888888888889 0  L 135 0  L 135 30  L 95.7777777777778 30  L 92.9999999999999 30  L 80.4999999999999 30  L 0 30  Z " stroke-width="2" stroke="#797979" fill="none" transform="matrix(1 0 0 1 807 376 )" mask="url(#clip19)" />
  </g>
</svg>